<svg width="16" height="16" viewBox="0 0 16 16" fill="none" xmlns="http://www.w3.org/2000/svg">
<path d="M4.62663 3.33327C4.62645 3.68689 4.48581 4.02596 4.23563 4.27588C3.98546 4.52581 3.64625 4.66611 3.29263 4.66594C2.93901 4.66576 2.59994 4.52511 2.35001 4.27494C2.10009 4.02477 1.95978 3.68556 1.95996 3.33193C1.96014 2.97831 2.10078 2.63924 2.35096 2.38932C2.60113 2.1394 2.94034 1.99909 3.29396 1.99927C3.64758 1.99944 3.98665 2.14009 4.23658 2.39026C4.4865 2.64044 4.6268 2.97965 4.62663 3.33327ZM4.66663 5.65327H1.99996V13.9999H4.66663V5.65327ZM8.87996 5.65327H6.22663V13.9999H8.85329V9.61994C8.85329 7.17994 12.0333 6.95327 12.0333 9.61994V13.9999H14.6666V8.71327C14.6666 4.59994 9.95996 4.75327 8.85329 6.77327L8.87996 5.65327Z" fill="#C4C4C4"/>
</svg>
