<svg width="24" height="24" viewBox="0 0 24 24" fill="none" xmlns="http://www.w3.org/2000/svg">
<path d="M10.1698 19C10.3192 19.0005 10.4668 18.9676 10.6018 18.9035C10.7368 18.8395 10.8557 18.7461 10.9498 18.63L15.7798 12.63C15.9269 12.4511 16.0073 12.2267 16.0073 11.995C16.0073 11.7634 15.9269 11.539 15.7798 11.36L10.7798 5.36003C10.6101 5.15581 10.3662 5.02739 10.1018 5.00301C9.83733 4.97863 9.57405 5.06029 9.36984 5.23003C9.16562 5.39977 9.0372 5.64368 9.01282 5.90811C8.98844 6.17253 9.0701 6.43581 9.23984 6.64003L13.7098 12L9.38984 17.36C9.26755 17.5068 9.18988 17.6856 9.166 17.8751C9.14212 18.0647 9.17303 18.2571 9.25509 18.4296C9.33715 18.6021 9.46691 18.7475 9.62902 18.8486C9.79113 18.9497 9.9788 19.0023 10.1698 19Z" fill="black"/>
</svg>
