<svg width="179" height="179" viewBox="0 0 179 179" fill="none" xmlns="http://www.w3.org/2000/svg">
<path fill-rule="evenodd" clip-rule="evenodd" d="M89.4997 7.45825C44.1903 7.45825 7.45801 44.1905 7.45801 89.4999C7.45801 134.809 44.1903 171.542 89.4997 171.542C134.809 171.542 171.541 134.809 171.541 89.4999C171.541 44.1905 134.809 7.45825 89.4997 7.45825ZM125.061 75.6274C125.716 74.8789 126.214 74.007 126.527 73.063C126.84 72.119 126.961 71.1219 126.883 70.1305C126.805 69.1391 126.529 68.1733 126.072 67.29C125.615 66.4066 124.986 65.6236 124.222 64.9869C123.458 64.3503 122.575 63.8728 121.623 63.5827C120.672 63.2925 119.673 63.1956 118.683 63.2975C117.694 63.3994 116.735 63.6982 115.863 64.1761C114.991 64.6541 114.223 65.3017 113.605 66.0807L81.5342 104.558L64.9394 87.956C63.5327 86.5974 61.6487 85.8457 59.6932 85.8627C57.7376 85.8797 55.867 86.6641 54.4841 88.0469C53.1013 89.4297 52.3169 91.3004 52.2999 93.2559C52.2829 95.2115 53.0347 97.0955 54.3933 98.5021L76.7683 120.877C77.5011 121.61 78.3785 122.181 79.3445 122.556C80.3105 122.93 81.344 123.099 82.379 123.052C83.414 123.005 84.4278 122.743 85.3559 122.283C86.284 121.822 87.1059 121.173 87.7693 120.377L125.061 75.6274Z" fill="#27AE60"/>
</svg>
