<svg width="1440" height="622" viewBox="0 0 1440 622" fill="none" xmlns="http://www.w3.org/2000/svg">
<path d="M651.934 -609.303C868.019 -552.383 1054.59 -385.312 1124.16 -172.917C1145.77 -106.51 1156.84 -36.4142 1183.19 28.4113C1226.93 135.4 1314.42 222.888 1419.83 269.794C1515.22 311.957 1625.9 297.2 1720.76 340.944C1809.31 381.526 1860.96 467.433 1852 564.935C1843.56 661.382 1788.75 747.289 1747.12 832.669C1708.12 912.252 1669.64 996.578 1597.97 1052.44C1487.29 1139.4 1340.24 1153.63 1205.85 1174.19C990.819 1206.87 772.626 1225.31 554.959 1225.31C439.538 1225.31 319.901 1216.35 217.129 1163.65C69.5586 1087.76 -21.0917 933.86 -78.5387 777.858C-185 487.46 -203.973 151.738 -132.296 -149.727C-92.7687 -315.217 -4.22649 -497.571 159.155 -569.775C315.158 -638.817 486.972 -652.52 651.934 -609.303Z" stroke="white" stroke-opacity="0.3" stroke-width="2" stroke-miterlimit="10"/>
<path d="M210.808 -449.084C265.093 -474.382 321.486 -491.774 379.46 -501.26C468.002 -516.018 558.653 -511.801 647.722 -489.666C840.09 -440.651 1007.16 -294.135 1073.57 -108.618C1094.65 -50.6441 1106.24 10.4922 1130.49 67.4122C1170.54 160.171 1249.07 237.645 1342.88 280.335C1427.74 318.809 1524.71 308.268 1607.98 348.323C1685.46 385.215 1730.78 461.109 1723.4 546.489C1716.55 631.868 1668.59 707.235 1631.17 782.074C1596.39 851.643 1561.6 924.901 1497.31 973.915C1398.22 1049.81 1269.1 1061.4 1150.52 1077.21C961.309 1103.04 769.994 1113.05 579.734 1109.36C479.07 1107.78 375.244 1099.35 285.648 1052.97C156.524 986.564 76.4141 853.224 24.2374 718.83C-14.7633 617.639 -41.6422 510.123 -56.3992 401.026C-77.4807 239.753 -72.2103 74.2636 -37.9529 -81.2122C-20.0336 -163.957 12.6426 -251.972 64.2922 -324.703C102.239 -376.88 150.726 -421.151 210.808 -449.084Z" stroke="white" stroke-opacity="0.3" stroke-width="2" stroke-miterlimit="10"/>
<path d="M261.937 -327.866C308.317 -351.055 357.858 -367.393 408.454 -376.88C485.928 -391.11 565.511 -388.475 642.985 -369.501C811.637 -328.92 959.734 -202.431 1022.45 -43.7928C1042.48 6.27569 1054.6 58.4524 1077.26 106.94C1113.63 185.468 1183.2 252.929 1265.42 291.93C1339.2 326.187 1423 320.917 1495.2 357.282C1561.61 390.485 1600.61 455.838 1594.81 529.623C1589.54 603.408 1548.96 668.761 1515.23 733.586C1484.66 792.614 1453.57 854.805 1397.17 896.968C1309.69 961.793 1197.95 970.753 1095.71 982.348C932.328 1000.79 768.42 1002.9 605.038 996.05C519.658 992.361 431.116 984.456 354.169 944.928C244.018 888.008 173.922 775.222 127.016 662.436C91.7046 577.056 66.9339 486.933 52.1769 395.229C31.0954 260.307 31.6224 121.17 56.9202 -11.1165C70.0961 -81.7394 95.9209 -156.579 138.611 -219.296C170.233 -265.148 211.342 -303.095 261.937 -327.866Z" stroke="white" stroke-opacity="0.3" stroke-width="2" stroke-miterlimit="10"/>
<path d="M313.054 -207.174C352.054 -228.256 393.69 -243.54 436.907 -252.499C503.314 -266.202 571.302 -265.148 638.235 -249.864C783.17 -217.188 911.24 -111.253 971.322 20.5057C990.296 62.1416 1003.47 105.359 1024.03 145.94C1056.7 210.239 1116.78 268.213 1187.93 302.997C1250.65 333.566 1321.27 333.038 1381.88 365.188C1437.22 394.702 1469.9 450.041 1466.21 511.704C1462.52 573.894 1428.79 629.233 1399.28 684.045C1372.92 733.059 1345.52 784.182 1296.5 818.966C1221.14 872.724 1126.8 879.576 1040.36 886.427C902.808 898.022 765.778 891.697 629.276 881.684C558.653 876.413 485.922 868.508 422.15 835.304C330.446 787.344 270.891 695.64 229.255 603.935C198.16 534.894 174.97 462.162 160.74 387.85C139.659 279.281 135.442 165.968 151.78 57.3983C160.74 -0.575743 179.186 -62.7661 213.444 -115.47C238.214 -152.889 271.945 -185.039 313.054 -207.174Z" stroke="white" stroke-opacity="0.3" stroke-width="2" stroke-miterlimit="10"/>
<path d="M364.701 -86.483C395.796 -105.456 430.053 -119.686 465.892 -128.119C521.231 -141.295 578.15 -141.822 634.016 -130.227C755.235 -105.456 863.804 -20.0764 920.197 84.8038C938.117 118.007 951.819 152.265 970.793 184.414C999.78 235.009 1050.9 282.443 1110.46 313.538C1162.11 340.417 1220.08 344.106 1268.57 373.093C1312.31 398.918 1339.19 443.716 1337.08 493.784C1334.98 544.38 1308.62 589.705 1282.8 634.503C1260.66 672.977 1236.42 713.559 1195.31 741.491C1131.54 784.181 1054.59 788.398 984.496 791.033C872.764 795.249 763.14 781.019 653.517 767.843C598.178 760.992 540.204 753.613 489.608 726.735C416.35 688.261 366.809 617.111 331.497 547.015C304.618 493.784 283.01 438.445 268.78 382.053C247.698 299.308 238.739 212.874 246.117 128.021C250.334 82.6958 261.928 33.1543 287.753 -9.00866C306.727 -41.1579 332.024 -66.9827 364.701 -86.483Z" stroke="white" stroke-opacity="0.3" stroke-width="2" stroke-miterlimit="10"/>
<path d="M415.825 34.7359C439.542 17.8708 465.894 4.69483 494.354 -3.73776C538.625 -16.3866 583.95 -18.4948 629.275 -10.5892C726.777 6.27596 815.846 71.1015 869.077 149.103C885.942 173.874 900.172 199.171 917.037 223.415C942.335 259.781 984.498 297.2 1032.46 324.606C1073.04 347.796 1117.84 356.228 1154.73 380.999C1187.41 403.135 1207.96 437.919 1207.43 475.866C1206.91 515.393 1187.93 550.178 1166.33 584.435C1148.41 612.895 1127.85 642.409 1094.65 662.964C1042.47 695.113 983.444 696.167 929.159 694.586C842.725 691.424 761.034 669.815 678.289 652.95C637.708 644.517 595.545 637.139 557.598 616.584C503.313 587.07 463.786 537.002 433.745 487.987C411.082 451.095 391.582 412.621 376.825 373.621C355.743 317.228 341.513 256.618 340.459 195.482C339.932 162.279 344.675 125.913 362.068 93.7641C374.716 70.5745 392.636 51.0741 415.825 34.7359Z" stroke="white" stroke-opacity="0.3" stroke-width="2" stroke-miterlimit="10"/>
<path d="M466.947 155.427C482.758 140.143 502.259 128.548 523.34 120.643C556.543 108.521 590.801 105.359 625.058 109.048C698.843 117.481 768.939 162.279 818.481 213.401C834.819 229.739 849.049 246.605 864.333 262.416C885.414 284.551 919.145 311.957 955.51 335.147C985.024 354.647 1016.65 367.296 1042.47 388.905C1064.08 407.351 1078.31 431.595 1079.36 457.419C1080.42 485.352 1068.82 510.65 1050.9 534.367C1037.2 552.813 1020.34 571.259 994.511 584.962C954.456 606.044 912.293 604.463 874.347 598.138C813.737 588.124 759.452 558.61 703.587 537.529C678.289 528.042 651.41 520.137 626.639 506.434C590.801 486.406 561.814 457.419 537.043 429.486C518.597 408.405 500.677 387.85 485.92 366.242C465.366 336.201 445.866 301.416 435.852 264.524C430.582 243.969 429 220.78 437.433 198.117C442.703 182.833 453.244 168.603 466.947 155.427Z" stroke="white" stroke-opacity="0.3" stroke-width="2" stroke-miterlimit="10"/>
<path d="M511.218 302.47C512.799 336.727 562.341 352.539 593.436 359.39C643.504 370.985 689.884 387.85 727.303 423.688C773.155 467.433 819.008 532.785 892.793 507.487C965.524 482.19 959.726 438.445 928.104 397.337C896.482 356.228 839.562 317.227 810.575 301.943C735.209 262.415 638.234 199.698 551.8 245.55C538.097 252.929 525.448 262.942 518.07 276.645C513.326 286.132 511.218 294.565 511.218 302.47Z" stroke="white" stroke-opacity="0.3" stroke-width="2" stroke-miterlimit="10"/>
</svg>
